<svg width="31" height="31" viewBox="0 0 31 31" fill="none" xmlns="http://www.w3.org/2000/svg">
<path d="M16.3335 16.7916C19.4485 16.7916 25.6668 18.5225 25.6668 21.9583V25.8333H7.00012V21.9583C7.00012 18.5225 13.2185 16.7916 16.3335 16.7916ZM16.3335 5.16663C17.5711 5.16663 18.7581 5.71097 19.6333 6.67991C20.5085 7.64885 21.0001 8.96301 21.0001 10.3333C21.0001 11.7036 20.5085 13.0177 19.6333 13.9867C18.7581 14.9556 17.5711 15.5 16.3335 15.5C15.0958 15.5 13.9088 14.9556 13.0336 13.9867C12.1585 13.0177 11.6668 11.7036 11.6668 10.3333C11.6668 8.96301 12.1585 7.64885 13.0336 6.67991C13.9088 5.71097 15.0958 5.16663 16.3335 5.16663ZM16.3335 19.2458C12.8685 19.2458 9.21679 21.1316 9.21679 21.9583V23.3791H23.4501V21.9583C23.4501 21.1316 19.7985 19.2458 16.3335 19.2458ZM16.3335 7.62079C15.6837 7.62079 15.0605 7.90657 14.601 8.41527C14.1416 8.92396 13.8835 9.61389 13.8835 10.3333C13.8835 11.0527 14.1416 11.7426 14.601 12.2513C15.0605 12.76 15.6837 13.0458 16.3335 13.0458C16.9832 13.0458 17.6064 12.76 18.0659 12.2513C18.5253 11.7426 18.7835 11.0527 18.7835 10.3333C18.7835 9.61389 18.5253 8.92396 18.0659 8.41527C17.6064 7.90657 16.9832 7.62079 16.3335 7.62079Z" fill="#DCDCDC"/>
</svg>
