<svg width="95" height="54" viewBox="0 0 95 54" fill="none" xmlns="http://www.w3.org/2000/svg">
<path d="M23.6094 22.8555C25.3438 23.5352 26.2109 24.8242 26.2109 26.7227V27.2324C26.2109 29.9629 26.8262 32.1367 28.0566 33.7539C28.4316 34.2461 28.7891 34.668 29.1289 35.0195C29.6445 35.5586 29.9023 36.0742 29.9023 36.5664C29.9023 37.0352 29.7734 37.4043 29.5156 37.6738C29.0938 38.1191 28.6777 38.3418 28.2676 38.3418C27.8574 38.3418 27.4648 38.2539 27.0898 38.0781C26.7266 37.9023 26.2402 37.5391 25.6309 36.9883C25.0332 36.4375 24.4648 35.6934 23.9258 34.7559C22.6602 32.5176 22.0273 29.7754 22.0273 26.5293C22.0273 25.9551 21.8809 25.5156 21.5879 25.2109C21.0957 24.6953 20.5566 24.4375 19.9707 24.4375H17.8965V32.2773C17.8965 33.168 17.4805 33.8008 16.6484 34.1758C16.3906 34.2812 16.1152 34.334 15.8223 34.334C15.541 34.334 15.2715 34.2754 15.0137 34.1582C14.7559 34.0527 14.5332 33.9062 14.3457 33.7188C13.9355 33.332 13.7305 32.8516 13.7305 32.2773V17.1953C13.7305 16.1172 14.1289 15.1973 14.9258 14.4355L15.2422 14.1191C15.3359 14.0137 15.3828 13.9082 15.3828 13.8027C15.3828 13.6973 15.3418 13.5859 15.2598 13.4688C15.1895 13.3398 15.043 13.2754 14.8203 13.2754H12.834C12.3184 13.2754 11.9199 13.4336 11.6387 13.75C11.1699 14.2773 10.9355 14.8164 10.9355 15.3672V16.3691C10.9355 17.2832 10.5078 17.916 9.65234 18.2676C9.39453 18.373 9.11914 18.4258 8.82617 18.4258C8.54492 18.4258 8.27539 18.373 8.01758 18.2676C7.77148 18.1621 7.55469 18.0156 7.36719 17.8281C6.96875 17.4297 6.76953 16.9434 6.76953 16.3691V15.3145C6.76953 13.8848 7.2793 12.6602 8.29883 11.6406C9.31836 10.6211 10.543 10.1113 11.9727 10.1113H21.0957C22.502 10.1113 23.7031 10.6211 24.6992 11.6406C25.6836 12.6484 26.1758 13.873 26.1758 15.3145L26.1934 18.4258C26.2168 20.4648 25.3555 21.9414 23.6094 22.8555ZM17.8965 21.2734H19.9531C20.5273 21.2734 20.9609 21.1211 21.2539 20.8164C21.7695 20.3125 22.0273 19.7617 22.0273 19.1641V15.3672C22.0273 14.8047 21.8809 14.3711 21.5879 14.0664C21.0957 13.5391 20.5449 13.2812 19.9355 13.293C19.3379 13.293 18.8457 13.4922 18.459 13.8906C18.084 14.2891 17.8965 14.7754 17.8965 15.3496V21.2734ZM34.3222 16.8613C34.3222 16.1582 34.6503 15.666 35.3066 15.3848C35.4941 15.3027 35.6991 15.2617 35.9218 15.2617H40.0702C41.4999 15.2617 42.7245 15.7715 43.7441 16.791C44.7636 17.8105 45.2734 19.0352 45.2734 20.4648V32.2949C45.2734 33.1855 44.8515 33.8125 44.0077 34.1758C43.7499 34.293 43.4687 34.3516 43.164 34.3516C42.8593 34.3516 42.5956 34.2988 42.373 34.1934C42.162 34.0996 41.9804 33.9883 41.828 33.8594C41.6991 33.7422 41.5702 33.5781 41.4413 33.3672C41.3124 33.1445 41.2128 32.9805 41.1425 32.875C41.0722 32.7695 40.9609 32.7168 40.8085 32.7168C40.6562 32.7168 40.5331 32.7695 40.4394 32.875L40.1581 33.1738C39.373 33.959 38.453 34.3516 37.3984 34.3516C36.1445 34.3516 35.0605 33.8359 34.1464 32.8047C33.2323 31.7852 32.7753 30.5664 32.7753 29.1484V26.7227C32.7753 25.293 33.2851 24.0684 34.3046 23.0488C35.3124 22.041 36.537 21.5371 37.9784 21.5371H41.1073V20.5176C41.1073 19.9316 40.9609 19.4922 40.6679 19.1992C40.1523 18.6836 39.6073 18.4258 39.0331 18.4258H35.9218C35.4882 18.4258 35.1542 18.3145 34.9198 18.0918C34.5214 17.7168 34.3222 17.3066 34.3222 16.8613ZM36.9413 29.1133C36.9413 29.7109 37.0878 30.1504 37.3808 30.4316C37.8964 30.9238 38.371 31.1699 38.8046 31.1699C39.2382 31.1699 39.578 31.1289 39.8241 31.0469C40.082 30.9648 40.3046 30.8477 40.4921 30.6953C40.9023 30.3672 41.1073 29.9336 41.1073 29.3945V24.6836H39.0331C38.4355 24.6836 37.9902 24.8301 37.6972 25.123C37.1933 25.627 36.9413 26.1719 36.9413 26.7578V29.1133ZM60.0291 19.0059C59.5252 18.3848 58.91 18.0742 58.1834 18.0742C57.5506 18.0742 57.0819 18.2266 56.7772 18.5312C56.2733 19.0352 56.0213 19.5801 56.0213 20.166V28.7617C56.0213 29.3594 56.1678 29.7988 56.4608 30.0801C56.9764 30.5723 57.5213 30.8184 58.0955 30.8184H62.4198C63.1112 30.8184 63.5975 31.1523 63.8787 31.8203C63.9608 32.0078 64.0018 32.2129 64.0018 32.4355C64.0018 32.6465 63.9608 32.8516 63.8787 33.0508C63.7967 33.2383 63.6854 33.4023 63.5448 33.543C63.2401 33.8477 62.8651 34 62.4198 34H57.0584C55.6287 34 54.4041 33.4902 53.3846 32.4707C52.3651 31.4512 51.8553 30.2266 51.8553 28.7969V20.0781C51.8553 18.5664 52.3651 17.3477 53.3846 16.4219C54.4979 15.4141 56.0682 14.9102 58.0955 14.9102C60.826 14.9102 62.6483 15.543 63.5623 16.8086C63.8553 17.1953 64.0018 17.5879 64.0018 17.9863C64.0018 18.373 63.9491 18.6953 63.8436 18.9531C63.7381 19.1992 63.5916 19.416 63.4041 19.6035C63.0057 20.002 62.5545 20.2012 62.0506 20.2012C61.2303 20.2012 60.5565 19.8027 60.0291 19.0059ZM80.2693 23.418C82.3552 24.2617 83.3982 25.8145 83.3982 28.0762V32.2949C83.3982 32.8691 83.2517 33.2969 82.9588 33.5781C82.1619 34.3516 81.3416 34.5508 80.4978 34.1758C79.6423 33.8125 79.2146 33.1855 79.2146 32.2949V28.1289C79.2146 27.543 79.0681 27.1035 78.7752 26.8105C78.2595 26.2949 77.7205 26.0371 77.158 26.0371H75.1189V32.2949C75.1189 32.8574 74.9666 33.2852 74.6619 33.5781C74.158 34.0938 73.6892 34.3516 73.2556 34.3516C72.822 34.3516 72.4763 34.293 72.2185 34.1758C71.9607 34.0703 71.738 33.9297 71.5505 33.7539C71.1404 33.3555 70.9353 32.8691 70.9353 32.2949V9.07422C70.9353 8.5 71.0877 8.05469 71.3923 7.73828C71.8845 7.22266 72.4353 6.96484 73.0447 6.96484C73.6306 6.96484 74.0642 7.11719 74.3455 7.42188C74.8611 7.94922 75.1189 8.5 75.1189 9.07422V22.873H76.3845L79.6892 16.0527C79.8533 15.6777 80.1111 15.3906 80.4627 15.1914C80.8142 14.9805 81.1716 14.875 81.5349 14.875C81.8982 14.875 82.2439 14.9629 82.572 15.1387C82.9002 15.3027 83.158 15.5547 83.3455 15.8945C83.5447 16.2344 83.6443 16.5918 83.6443 16.9668C83.6443 17.3301 83.5623 17.6582 83.3982 17.9512L80.2693 23.418Z" fill="white"/>
</svg>
