<svg width="32" height="32" viewBox="0 0 32 32" fill="none" xmlns="http://www.w3.org/2000/svg">
<path d="M28.9 12.05C28.1972 10.3866 27.1784 8.87533 25.9 7.6C24.6247 6.32159 23.1134 5.30276 21.45 4.6C19.7219 3.86875 17.8906 3.5 16 3.5C14.1094 3.5 12.2781 3.86875 10.55 4.6C8.88659 5.30276 7.37533 6.32159 6.1 7.6C4.82159 8.87533 3.80276 10.3866 3.1 12.05C2.36875 13.7781 2 15.6094 2 17.5C2 21.6469 3.82187 25.5531 6.99687 28.2219L7.05 28.2656C7.23125 28.4156 7.45937 28.5 7.69375 28.5H24.3094C24.5438 28.5 24.7719 28.4156 24.9531 28.2656L25.0063 28.2219C28.1781 25.5531 30 21.6469 30 17.5C30 15.6094 29.6281 13.7781 28.9 12.05ZM23.7938 26.125H8.20625C6.99874 25.0362 6.03365 23.7057 5.37361 22.2198C4.71358 20.734 4.37335 19.1259 4.375 17.5C4.375 14.3937 5.58437 11.475 7.78125 9.28125C9.97813 7.08437 12.8969 5.875 16 5.875C19.1063 5.875 22.025 7.08437 24.2188 9.28125C26.4156 11.4781 27.625 14.3969 27.625 17.5C27.625 20.8 26.2344 23.9219 23.7938 26.125ZM19.4844 13.1719C19.4374 13.1253 19.3739 13.0992 19.3078 13.0992C19.2417 13.0992 19.1782 13.1253 19.1313 13.1719L16.4906 15.8125C15.9063 15.6562 15.2594 15.8063 14.8 16.2656C14.6373 16.428 14.5082 16.6209 14.4201 16.8333C14.3321 17.0456 14.2867 17.2732 14.2867 17.5031C14.2867 17.733 14.3321 17.9606 14.4201 18.173C14.5082 18.3853 14.6373 18.5782 14.8 18.7406C14.9624 18.9033 15.1553 19.0324 15.3676 19.1205C15.58 19.2086 15.8076 19.2539 16.0375 19.2539C16.2674 19.2539 16.495 19.2086 16.7074 19.1205C16.9197 19.0324 17.1126 18.9033 17.275 18.7406C17.4926 18.5236 17.6492 18.253 17.7287 17.9562C17.8083 17.6593 17.8081 17.3467 17.7281 17.05L20.3687 14.4094C20.4656 14.3125 20.4656 14.1531 20.3687 14.0562L19.4844 13.1719V13.1719ZM15.3125 10H16.6875C16.825 10 16.9375 9.8875 16.9375 9.75V7.25C16.9375 7.1125 16.825 7 16.6875 7H15.3125C15.175 7 15.0625 7.1125 15.0625 7.25V9.75C15.0625 9.8875 15.175 10 15.3125 10ZM23.4375 16.8125V18.1875C23.4375 18.325 23.55 18.4375 23.6875 18.4375H26.1875C26.325 18.4375 26.4375 18.325 26.4375 18.1875V16.8125C26.4375 16.675 26.325 16.5625 26.1875 16.5625H23.6875C23.55 16.5625 23.4375 16.675 23.4375 16.8125ZM23.8344 10.65L22.8625 9.67813C22.8155 9.6316 22.7521 9.6055 22.6859 9.6055C22.6198 9.6055 22.5564 9.6316 22.5094 9.67813L20.7406 11.4469C20.6941 11.4939 20.668 11.5573 20.668 11.6234C20.668 11.6896 20.6941 11.753 20.7406 11.8L21.7125 12.7719C21.8094 12.8688 21.9687 12.8688 22.0656 12.7719L23.8344 11.0031C23.9313 10.9063 23.9313 10.7469 23.8344 10.65ZM9.50313 9.67813C9.45614 9.6316 9.39269 9.6055 9.32656 9.6055C9.26044 9.6055 9.19699 9.6316 9.15 9.67813L8.17813 10.65C8.1316 10.697 8.1055 10.7604 8.1055 10.8266C8.1055 10.8927 8.1316 10.9561 8.17813 11.0031L9.94687 12.7719C10.0437 12.8688 10.2031 12.8688 10.3 12.7719L11.2719 11.8C11.3688 11.7031 11.3688 11.5437 11.2719 11.4469L9.50313 9.67813ZM8.1875 16.5625H5.6875C5.55 16.5625 5.4375 16.675 5.4375 16.8125V18.1875C5.4375 18.325 5.55 18.4375 5.6875 18.4375H8.1875C8.325 18.4375 8.4375 18.325 8.4375 18.1875V16.8125C8.4375 16.675 8.325 16.5625 8.1875 16.5625Z" fill="#1E1E1E"/>
</svg>
