<svg width="32" height="32" viewBox="0 0 32 32" fill="none" xmlns="http://www.w3.org/2000/svg">
<path d="M27.1249 22.875H24.9281C24.7781 22.875 24.6374 22.9406 24.5437 23.0562C24.3249 23.3219 24.0906 23.5781 23.8437 23.8219C22.834 24.8326 21.638 25.6381 20.3218 26.1938C18.9582 26.7697 17.4927 27.0651 16.0124 27.0625C14.5156 27.0625 13.0656 26.7688 11.7031 26.1938C10.3869 25.6381 9.19091 24.8326 8.18121 23.8219C7.16969 22.8146 6.36314 21.6207 5.80621 20.3062C5.22808 18.9437 4.93746 17.4969 4.93746 16C4.93746 14.5031 5.23121 13.0562 5.80621 11.6937C6.36246 10.3781 7.16246 9.19374 8.18121 8.17811C9.19995 7.16249 10.3843 6.36249 11.7031 5.80624C13.0656 5.23124 14.5156 4.93749 16.0124 4.93749C17.5093 4.93749 18.9593 5.22811 20.3218 5.80624C21.6406 6.36249 22.8249 7.16249 23.8437 8.17811C24.0906 8.42499 24.3218 8.68124 24.5437 8.94374C24.6374 9.05937 24.7812 9.12499 24.9281 9.12499H27.1249C27.3218 9.12499 27.4437 8.90624 27.3343 8.74062C24.9374 5.01561 20.7437 2.54999 15.9781 2.56249C8.49058 2.58124 2.48746 8.65937 2.56246 16.1375C2.63746 23.4969 8.63121 29.4375 16.0124 29.4375C20.7656 29.4375 24.9406 26.975 27.3343 23.2594C27.4406 23.0937 27.3218 22.875 27.1249 22.875ZM29.9031 15.8031L25.4687 12.3031C25.3031 12.1719 25.0624 12.2906 25.0624 12.5V14.875H15.2499C15.1124 14.875 14.9999 14.9875 14.9999 15.125V16.875C14.9999 17.0125 15.1124 17.125 15.2499 17.125H25.0624V19.5C25.0624 19.7094 25.3062 19.8281 25.4687 19.6969L29.9031 16.1969C29.9329 16.1735 29.9571 16.1436 29.9737 16.1095C29.9903 16.0754 29.999 16.0379 29.999 16C29.999 15.9621 29.9903 15.9246 29.9737 15.8905C29.9571 15.8564 29.9329 15.8265 29.9031 15.8031V15.8031Z" fill="#D6D6D6"/>
</svg>
