<svg width="32" height="32" viewBox="0 0 32 32" fill="none" xmlns="http://www.w3.org/2000/svg">
<path d="M28.1067 9.33332C27.8764 8.93415 27.5465 8.6015 27.1492 8.36782C26.7519 8.13414 26.3009 8.00741 25.8401 7.99999H8.77341L8.00008 4.98666C7.92195 4.69577 7.74763 4.43991 7.50552 4.26075C7.26341 4.08159 6.96777 3.98968 6.66675 3.99999H4.00008C3.64646 3.99999 3.30732 4.14046 3.05727 4.39051C2.80722 4.64056 2.66675 4.9797 2.66675 5.33332C2.66675 5.68694 2.80722 6.02608 3.05727 6.27613C3.30732 6.52618 3.64646 6.66666 4.00008 6.66666H5.65341L9.33341 20.3467C9.41155 20.6375 9.58587 20.8934 9.82798 21.0726C10.0701 21.2517 10.3657 21.3436 10.6667 21.3333H22.6667C22.913 21.3326 23.1542 21.2637 23.3636 21.1342C23.5731 21.0048 23.7426 20.8199 23.8534 20.6L28.2267 11.8533C28.4163 11.456 28.5045 11.0179 28.4836 10.5782C28.4627 10.1385 28.3332 9.71083 28.1067 9.33332ZM21.8401 18.6667H11.6801L9.50675 10.6667H25.8401L21.8401 18.6667Z" fill="#D6D6D6"/>
<path d="M10 28C11.1046 28 12 27.1046 12 26C12 24.8954 11.1046 24 10 24C8.89543 24 8 24.8954 8 26C8 27.1046 8.89543 28 10 28Z" fill="#D6D6D6"/>
<path d="M23.3333 28C24.4378 28 25.3333 27.1046 25.3333 26C25.3333 24.8954 24.4378 24 23.3333 24C22.2287 24 21.3333 24.8954 21.3333 26C21.3333 27.1046 22.2287 28 23.3333 28Z" fill="#D6D6D6"/>
</svg>
