<svg width="54" height="10" viewBox="0 0 54 10" fill="none" xmlns="http://www.w3.org/2000/svg">
<path d="M37.0918 2.79508C37.3777 1.91531 38.6223 1.91531 38.9082 2.79509V2.79509C39.036 3.18853 39.4027 3.45492 39.8164 3.45492V3.45492C40.7414 3.45492 41.126 4.63864 40.3776 5.18237V5.18237C40.043 5.42554 39.9029 5.85655 40.0307 6.25V6.25C40.3166 7.12977 39.3097 7.86136 38.5613 7.31763V7.31763C38.2266 7.07446 37.7734 7.07446 37.4387 7.31763V7.31763C36.6903 7.86136 35.6834 7.12977 35.9693 6.25V6.25C36.0971 5.85655 35.957 5.42554 35.6224 5.18237V5.18237C34.874 4.63864 35.2586 3.45492 36.1836 3.45492V3.45492C36.5973 3.45492 36.964 3.18853 37.0918 2.79508V2.79508Z" fill="#C4C4C4"/>
<path d="M4.09182 2.79508C4.37768 1.91531 5.62232 1.91531 5.90818 2.79509V2.79509C6.03602 3.18853 6.40266 3.45492 6.81636 3.45492V3.45492C7.74141 3.45492 8.12602 4.63864 7.37764 5.18237V5.18237C7.04296 5.42554 6.90291 5.85655 7.03075 6.25V6.25C7.3166 7.12977 6.30967 7.86136 5.56129 7.31763V7.31763C5.2266 7.07446 4.7734 7.07446 4.43871 7.31763V7.31763C3.69033 7.86136 2.6834 7.12977 2.96925 6.25V6.25C3.09709 5.85655 2.95704 5.42554 2.62236 5.18237V5.18237C1.87398 4.63864 2.25859 3.45492 3.18364 3.45492V3.45492C3.59734 3.45492 3.96398 3.18853 4.09182 2.79508V2.79508Z" fill="#FBA300"/>
<path d="M15.0918 2.79508C15.3777 1.91531 16.6223 1.91531 16.9082 2.79509V2.79509C17.036 3.18853 17.4027 3.45492 17.8164 3.45492V3.45492C18.7414 3.45492 19.126 4.63864 18.3776 5.18237V5.18237C18.043 5.42554 17.9029 5.85655 18.0307 6.25V6.25C18.3166 7.12977 17.3097 7.86136 16.5613 7.31763V7.31763C16.2266 7.07446 15.7734 7.07446 15.4387 7.31763V7.31763C14.6903 7.86136 13.6834 7.12977 13.9693 6.25V6.25C14.0971 5.85655 13.957 5.42554 13.6224 5.18237V5.18237C12.874 4.63864 13.2586 3.45492 14.1836 3.45492V3.45492C14.5973 3.45492 14.964 3.18853 15.0918 2.79508V2.79508Z" fill="#FBA300"/>
<path d="M26.0918 2.79508C26.3777 1.91531 27.6223 1.91531 27.9082 2.79509V2.79509C28.036 3.18853 28.4027 3.45492 28.8164 3.45492V3.45492C29.7414 3.45492 30.126 4.63864 29.3776 5.18237V5.18237C29.043 5.42554 28.9029 5.85655 29.0307 6.25V6.25C29.3166 7.12977 28.3097 7.86136 27.5613 7.31763V7.31763C27.2266 7.07446 26.7734 7.07446 26.4387 7.31763V7.31763C25.6903 7.86136 24.6834 7.12977 24.9693 6.25V6.25C25.0971 5.85655 24.957 5.42554 24.6224 5.18237V5.18237C23.874 4.63864 24.2586 3.45492 25.1836 3.45492V3.45492C25.5973 3.45492 25.964 3.18853 26.0918 2.79508V2.79508Z" fill="#FBA300"/>
<mask id="mask0_105_1211" style="mask-type:alpha" maskUnits="userSpaceOnUse" x="35" y="2" width="6" height="6">
<path d="M37.0918 2.79508C37.3777 1.91531 38.6223 1.91531 38.9082 2.79509V2.79509C39.036 3.18853 39.4027 3.45492 39.8164 3.45492V3.45492C40.7414 3.45492 41.126 4.63864 40.3776 5.18237V5.18237C40.043 5.42554 39.9029 5.85655 40.0307 6.25V6.25C40.3166 7.12977 39.3097 7.86136 38.5613 7.31763V7.31763C38.2266 7.07446 37.7734 7.07446 37.4387 7.31763V7.31763C36.6903 7.86136 35.6834 7.12977 35.9693 6.25V6.25C36.0971 5.85655 35.957 5.42554 35.6224 5.18237V5.18237C34.874 4.63864 35.2586 3.45492 36.1836 3.45492V3.45492C36.5973 3.45492 36.964 3.18853 37.0918 2.79508V2.79508Z" fill="#C4C4C4"/>
</mask>
<g mask="url(#mask0_105_1211)">
<rect x="33" width="5" height="10" rx="2.5" fill="#FBA300"/>
</g>
<path d="M48.0918 2.79508C48.3777 1.91531 49.6223 1.91531 49.9082 2.79509V2.79509C50.036 3.18853 50.4027 3.45492 50.8164 3.45492V3.45492C51.7414 3.45492 52.126 4.63864 51.3776 5.18237V5.18237C51.043 5.42554 50.9029 5.85655 51.0307 6.25V6.25C51.3166 7.12977 50.3097 7.86136 49.5613 7.31763V7.31763C49.2266 7.07446 48.7734 7.07446 48.4387 7.31763V7.31763C47.6903 7.86136 46.6834 7.12977 46.9693 6.25V6.25C47.0971 5.85655 46.957 5.42554 46.6224 5.18237V5.18237C45.874 4.63864 46.2586 3.45492 47.1836 3.45492V3.45492C47.5973 3.45492 47.964 3.18853 48.0918 2.79508V2.79508Z" fill="#C4C4C4"/>
</svg>
