<svg width="32" height="32" viewBox="0 0 32 32" fill="none" xmlns="http://www.w3.org/2000/svg">
<g clip-path="url(#clip0_102_1166)">
<path d="M27.9376 14.2227H8.88867V16.0004H27.9376C28.1733 16.0004 28.3994 15.9068 28.5661 15.7401C28.7328 15.5734 28.8265 15.3473 28.8265 15.1115C28.8265 14.8758 28.7328 14.6497 28.5661 14.483C28.3994 14.3163 28.1733 14.2227 27.9376 14.2227Z" fill="#D6D6D6"/>
<path d="M27.9376 21.333H8.88867V23.1108H27.9376C28.1733 23.1108 28.3994 23.0171 28.5661 22.8504C28.7328 22.6837 28.8265 22.4576 28.8265 22.2219C28.8265 21.9861 28.7328 21.7601 28.5661 21.5934C28.3994 21.4267 28.1733 21.333 27.9376 21.333Z" fill="#D6D6D6"/>
<path d="M13.7334 8.88886H27.9556C28.1914 8.88886 28.4175 8.79521 28.5842 8.62851C28.7509 8.46181 28.8445 8.23572 28.8445 7.99997C28.8445 7.76423 28.7509 7.53813 28.5842 7.37143C28.4175 7.20473 28.1914 7.11108 27.9556 7.11108H15.5112L13.7334 8.88886Z" fill="#D6D6D6"/>
<path d="M15.5556 3.03954C15.4655 2.94843 15.3583 2.8761 15.24 2.82673C15.1218 2.77737 14.9949 2.75195 14.8668 2.75195C14.7386 2.75195 14.6117 2.77737 14.4935 2.82673C14.3753 2.8761 14.268 2.94843 14.1779 3.03954L7.01342 10.204L4.00898 6.96842C3.83217 6.77865 3.58721 6.66688 3.32799 6.65771C3.06877 6.64854 2.81653 6.74272 2.62675 6.91954C2.43698 7.09635 2.32521 7.3413 2.31604 7.60052C2.30687 7.85974 2.40105 8.11198 2.57786 8.30176L6.96898 13.0129L15.5556 4.44398C15.6497 4.35282 15.7245 4.24369 15.7756 4.12306C15.8267 4.00243 15.853 3.87276 15.853 3.74176C15.853 3.61076 15.8267 3.48109 15.7756 3.36046C15.7245 3.23983 15.6497 3.13069 15.5556 3.03954Z" fill="#D6D6D6"/>
</g>
<defs>
<clipPath id="clip0_102_1166">
<rect width="32" height="32" fill="white"/>
</clipPath>
</defs>
</svg>
