<svg width="36" height="32" viewBox="0 0 36 32" fill="none" xmlns="http://www.w3.org/2000/svg">
<g clip-path="url(#clip0_102_1172)">
<path d="M12.6 16C16.5769 16 19.8 12.4187 19.8 8C19.8 3.58125 16.5769 0 12.6 0C8.62312 0 5.4 3.58125 5.4 8C5.4 12.4187 8.62312 16 12.6 16ZM17.64 18H16.7006C15.4519 18.6375 14.0625 19 12.6 19C11.1375 19 9.75375 18.6375 8.49938 18H7.56C3.38625 18 0 21.7625 0 26.4V29C0 30.6562 1.20937 32 2.7 32H18.1631C18.0281 31.575 17.9719 31.125 18.0169 30.6688L18.3994 26.8625L18.4669 26.1688L18.9113 25.675L23.2594 20.8438C21.8812 19.1125 19.8844 18 17.64 18V18ZM20.1881 27.0812L19.8056 30.8937C19.7437 31.5312 20.2275 32.0687 20.7956 31.9937L24.2212 31.5688L31.9781 22.95L27.945 18.4688L20.1881 27.0812V27.0812ZM35.6062 16.8062L33.4744 14.4375C32.9512 13.8562 32.0962 13.8562 31.5731 14.4375L29.4469 16.8L29.2163 17.0562L33.255 21.5375L35.6062 18.925C36.1294 18.3375 36.1294 17.3937 35.6062 16.8062V16.8062Z" fill="#D6D6D6"/>
</g>
<defs>
<clipPath id="clip0_102_1172">
<rect width="36" height="32" fill="white"/>
</clipPath>
</defs>
</svg>
