<svg width="32" height="32" viewBox="0 0 32 32" fill="none" xmlns="http://www.w3.org/2000/svg">
<rect width="32" height="32" rx="6" fill="white" fill-opacity="0.1"/>
<path d="M26.0408 13.3864C26.0444 13.445 26.0388 13.5038 26.0241 13.5607L24.6733 18.7236C24.637 18.8524 24.5593 18.9657 24.4523 19.046C24.3453 19.1263 24.2148 19.1692 24.081 19.168L15.9745 19.2067H7.86528C7.58368 19.2067 7.33728 19.0237 7.26952 18.7623L5.91872 13.58C5.90379 13.5214 5.89844 13.4608 5.90288 13.4005C5.38016 13.2439 5 12.7757 5 12.2257C5 11.5463 5.57816 10.9937 6.2892 10.9937C7.00024 10.9937 7.57928 11.5463 7.57928 12.2257C7.57928 12.6085 7.39536 12.9508 7.10848 13.1761L8.79984 14.805C9.22752 15.2168 9.82064 15.4527 10.4278 15.4527C11.145 15.4527 11.8288 15.1271 12.26 14.5815L15.0399 11.0623C14.921 10.9506 14.8262 10.8158 14.7611 10.6661C14.6961 10.5165 14.6622 10.3552 14.6615 10.192C14.6615 9.51266 15.2397 8.96002 15.9507 8.96002C16.6626 8.96002 17.2408 9.51266 17.2408 10.192C17.2408 10.5211 17.1035 10.8203 16.8826 11.0421L16.8853 11.0447L19.6441 14.5735C20.0753 15.1235 20.7617 15.4527 21.4815 15.4527C22.094 15.4527 22.6695 15.2239 23.1025 14.8103L24.8053 13.1849C24.6565 13.0729 24.5356 12.9281 24.452 12.7617C24.3683 12.5953 24.3242 12.4119 24.323 12.2257C24.323 11.5463 24.9012 10.9937 25.6122 10.9937C26.3242 10.9937 26.9023 11.5463 26.9023 12.2257C26.9023 12.7625 26.5415 13.2175 26.0399 13.3873L26.0408 13.3864ZM24.5413 21.0451C24.5413 20.7212 24.2667 20.459 23.927 20.459H8.04304C7.70424 20.459 7.4288 20.7212 7.4288 21.0451V22.4531C7.4288 22.7778 7.70424 23.04 8.04304 23.04H23.927C24.2667 23.04 24.5413 22.7778 24.5413 22.4531V21.0451Z" fill="white"/>
</svg>
