<svg width="32" height="32" viewBox="0 0 32 32" fill="none" xmlns="http://www.w3.org/2000/svg">
<g opacity="0.4">
<rect width="32" height="32" rx="6" fill="white" fill-opacity="0.1"/>
<g clip-path="url(#clip0_58_579)">
<path fill-rule="evenodd" clip-rule="evenodd" d="M16.4312 20.7532L22.7469 14.4374C22.8274 14.3598 22.8915 14.2668 22.9357 14.1641C22.9798 14.0614 23.003 13.9509 23.004 13.839C23.005 13.7272 22.9837 13.6163 22.9413 13.5129C22.899 13.4094 22.8364 13.3153 22.7574 13.2363C22.6783 13.1572 22.5843 13.0947 22.4808 13.0523C22.3773 13.01 22.2664 12.9887 22.1546 12.9897C22.0428 12.9906 21.9323 13.0139 21.8296 13.058C21.7268 13.1021 21.6339 13.1663 21.5562 13.2467L15.8358 18.9671L10.1154 13.2467C10.0377 13.1663 9.94476 13.1021 9.84202 13.058C9.73928 13.0139 9.62878 12.9906 9.51697 12.9897C9.40515 12.9887 9.29426 13.01 9.19077 13.0523C9.08728 13.0947 8.99326 13.1572 8.91419 13.2363C8.83512 13.3153 8.77259 13.4094 8.73025 13.5129C8.68791 13.6163 8.6666 13.7272 8.66758 13.839C8.66855 13.9509 8.69178 14.0614 8.73591 14.1641C8.78005 14.2668 8.8442 14.3598 8.92463 14.4374L15.2404 20.7532C15.3983 20.9111 15.6125 20.9998 15.8358 20.9998C16.0591 20.9998 16.2732 20.9111 16.4312 20.7532Z" fill="white"/>
</g>
</g>
<defs>
<clipPath id="clip0_58_579">
<rect width="8" height="18" fill="white" transform="matrix(0 1 -1 0 25 13)"/>
</clipPath>
</defs>
</svg>
