<svg width="259" height="70" viewBox="0 0 259 70" fill="none" xmlns="http://www.w3.org/2000/svg">
<g clip-path="url(#clip0_27_620)">
<path d="M54.6935 28.9628C54.2992 15.6825 43.3741 4.99998 29.9999 4.99998C16.6257 4.99998 5.70059 15.6825 5.30612 28.9628L3.5293 30.7396V42.7898L5.294 44.5545V52.7647C5.294 57.5652 9.19941 61.4706 13.9999 61.4706H16.1858C16.9142 63.5246 18.8758 65 21.1764 65H24.7058C27.0079 65 28.9705 63.5225 29.6978 61.4663C29.7986 61.4681 29.8997 61.4706 29.9999 61.4706C38.522 61.4706 45.6526 55.3981 47.2921 47.3529H51.9073L56.4705 42.7898V30.7396L54.6935 28.9628ZM29.9999 8.5294C40.4741 8.5294 49.1953 16.174 50.8806 26.1765H47.2921C45.6526 18.1313 38.522 12.0588 29.9999 12.0588C21.4778 12.0588 14.3472 18.1313 12.7077 26.1765H9.11918C10.8045 16.174 19.5257 8.5294 29.9999 8.5294ZM43.6708 26.1765C37.9662 26.1594 33.9368 26.5068 30.6147 21.6506L29.0015 19.2926L27.6152 21.7907C25.5952 25.4306 22.8748 26.1765 19.4117 26.1765H16.3289C17.9001 20.0943 23.4337 15.5882 29.9999 15.5882C36.5661 15.5882 42.0997 20.0943 43.6708 26.1765ZM12.3528 43.8235H9.55436L7.05871 41.3279V32.2015L9.55436 29.7059H12.3528V43.8235ZM8.82341 52.7647V47.3529H12.7042C13.3686 50.6441 14.9581 53.6652 17.3129 56.0916C16.8193 56.619 16.4321 57.2467 16.1858 57.9412H13.9999C11.1455 57.9412 8.82341 55.619 8.82341 52.7647ZM24.7058 61.4706H21.1764C20.2032 61.4706 19.4117 60.679 19.4117 59.7059C19.4117 58.7328 20.2032 57.9412 21.1764 57.9412H24.7058C25.6788 57.9412 26.4705 58.7328 26.4705 59.7059C26.4705 60.679 25.6788 61.4706 24.7058 61.4706ZM44.1175 43.8235C44.1175 51.608 37.7844 57.9412 29.9999 57.9412C29.8987 57.9412 29.7967 57.9392 29.6948 57.9368C28.9652 55.885 27.0047 54.4118 24.7058 54.4118C21.0822 54.4198 21.14 54.3936 20.6884 54.4352C17.6246 51.7498 15.8822 47.9248 15.8822 43.8235V29.7059H19.4117C22.5348 29.7059 26.3384 29.1909 29.2826 25.6076C33.1673 29.6786 37.9146 29.7059 42.1761 29.7059H44.1175V43.8235ZM52.9411 41.3279L50.4454 43.8235H47.6469V29.7059H50.4454L52.9411 32.2015V41.3279Z" fill="#C1C1C1"/>
</g>
<path d="M72.425 24.05C74.025 22.7167 75.3 21.6083 76.25 20.725C77.2 19.825 77.9917 18.8917 78.625 17.925C79.2583 16.9583 79.575 16.0083 79.575 15.075C79.575 14.225 79.375 13.5583 78.975 13.075C78.575 12.5917 77.9583 12.35 77.125 12.35C76.2917 12.35 75.65 12.6333 75.2 13.2C74.75 13.75 74.5167 14.5083 74.5 15.475H71.1C71.1667 13.475 71.7583 11.9583 72.875 10.925C74.0083 9.89167 75.4417 9.375 77.175 9.375C79.075 9.375 80.5333 9.88333 81.55 10.9C82.5667 11.9 83.075 13.225 83.075 14.875C83.075 16.175 82.725 17.4167 82.025 18.6C81.325 19.7833 80.525 20.8167 79.625 21.7C78.725 22.5667 77.55 23.6167 76.1 24.85H83.475V27.75H71.125V25.15L72.425 24.05ZM85.5305 24.45V21.7L93.7055 10H97.7805V21.4H99.9805V24.45H97.7805V28H94.2805V24.45H85.5305ZM94.5055 13.75L89.3805 21.4H94.5055V13.75ZM117.941 4.325L111.191 32.525H107.766L114.516 4.325H117.941ZM137.881 12.425L131.231 28H127.681L134.381 12.825H125.831V9.825H137.881V12.425ZM152.359 28.175C151.143 28.175 150.043 27.9667 149.059 27.55C148.093 27.1333 147.326 26.5333 146.759 25.75C146.193 24.9667 145.901 24.0417 145.884 22.975H149.634C149.684 23.6917 149.934 24.2583 150.384 24.675C150.851 25.0917 151.484 25.3 152.284 25.3C153.101 25.3 153.743 25.1083 154.209 24.725C154.676 24.325 154.909 23.8083 154.909 23.175C154.909 22.6583 154.751 22.2333 154.434 21.9C154.118 21.5667 153.718 21.3083 153.234 21.125C152.768 20.925 152.118 20.7083 151.284 20.475C150.151 20.1417 149.226 19.8167 148.509 19.5C147.809 19.1667 147.201 18.675 146.684 18.025C146.184 17.3583 145.934 16.475 145.934 15.375C145.934 14.3417 146.193 13.4417 146.709 12.675C147.226 11.9083 147.951 11.325 148.884 10.925C149.818 10.5083 150.884 10.3 152.084 10.3C153.884 10.3 155.343 10.7417 156.459 11.625C157.593 12.4917 158.218 13.7083 158.334 15.275H154.484C154.451 14.675 154.193 14.1833 153.709 13.8C153.243 13.4 152.618 13.2 151.834 13.2C151.151 13.2 150.601 13.375 150.184 13.725C149.784 14.075 149.584 14.5833 149.584 15.25C149.584 15.7167 149.734 16.1083 150.034 16.425C150.351 16.725 150.734 16.975 151.184 17.175C151.651 17.3583 152.301 17.575 153.134 17.825C154.268 18.1583 155.193 18.4917 155.909 18.825C156.626 19.1583 157.243 19.6583 157.759 20.325C158.276 20.9917 158.534 21.8667 158.534 22.95C158.534 23.8833 158.293 24.75 157.809 25.55C157.326 26.35 156.618 26.9917 155.684 27.475C154.751 27.9417 153.643 28.175 152.359 28.175ZM174.644 14.15V28H171.119V26.25C170.669 26.85 170.077 27.325 169.344 27.675C168.627 28.0083 167.844 28.175 166.994 28.175C165.91 28.175 164.952 27.95 164.119 27.5C163.285 27.0333 162.627 26.3583 162.144 25.475C161.677 24.575 161.444 23.5083 161.444 22.275V14.15H164.944V21.775C164.944 22.875 165.219 23.725 165.769 24.325C166.319 24.9083 167.069 25.2 168.019 25.2C168.985 25.2 169.744 24.9083 170.294 24.325C170.844 23.725 171.119 22.875 171.119 21.775V14.15H174.644ZM181.597 16.15C182.047 15.5167 182.664 14.9917 183.447 14.575C184.247 14.1417 185.155 13.925 186.172 13.925C187.355 13.925 188.422 14.2167 189.372 14.8C190.339 15.3833 191.097 16.2167 191.647 17.3C192.214 18.3667 192.497 19.6083 192.497 21.025C192.497 22.4417 192.214 23.7 191.647 24.8C191.097 25.8833 190.339 26.725 189.372 27.325C188.422 27.925 187.355 28.225 186.172 28.225C185.155 28.225 184.255 28.0167 183.472 27.6C182.705 27.1833 182.08 26.6583 181.597 26.025V34.6H178.097V14.15H181.597V16.15ZM188.922 21.025C188.922 20.1917 188.747 19.475 188.397 18.875C188.064 18.2583 187.614 17.7917 187.047 17.475C186.497 17.1583 185.897 17 185.247 17C184.614 17 184.014 17.1667 183.447 17.5C182.897 17.8167 182.447 18.2833 182.097 18.9C181.764 19.5167 181.597 20.2417 181.597 21.075C181.597 21.9083 181.764 22.6333 182.097 23.25C182.447 23.8667 182.897 24.3417 183.447 24.675C184.014 24.9917 184.614 25.15 185.247 25.15C185.897 25.15 186.497 24.9833 187.047 24.65C187.614 24.3167 188.064 23.8417 188.397 23.225C188.747 22.6083 188.922 21.875 188.922 21.025ZM198.54 16.15C198.99 15.5167 199.607 14.9917 200.39 14.575C201.19 14.1417 202.099 13.925 203.115 13.925C204.299 13.925 205.365 14.2167 206.315 14.8C207.282 15.3833 208.04 16.2167 208.59 17.3C209.157 18.3667 209.44 19.6083 209.44 21.025C209.44 22.4417 209.157 23.7 208.59 24.8C208.04 25.8833 207.282 26.725 206.315 27.325C205.365 27.925 204.299 28.225 203.115 28.225C202.099 28.225 201.199 28.0167 200.415 27.6C199.649 27.1833 199.024 26.6583 198.54 26.025V34.6H195.04V14.15H198.54V16.15ZM205.865 21.025C205.865 20.1917 205.69 19.475 205.34 18.875C205.007 18.2583 204.557 17.7917 203.99 17.475C203.44 17.1583 202.84 17 202.19 17C201.557 17 200.957 17.1667 200.39 17.5C199.84 17.8167 199.39 18.2833 199.04 18.9C198.707 19.5167 198.54 20.2417 198.54 21.075C198.54 21.9083 198.707 22.6333 199.04 23.25C199.39 23.8667 199.84 24.3417 200.39 24.675C200.957 24.9917 201.557 25.15 202.19 25.15C202.84 25.15 203.44 24.9833 203.99 24.65C204.557 24.3167 205.007 23.8417 205.34 23.225C205.69 22.6083 205.865 21.875 205.865 21.025ZM218.134 28.225C216.8 28.225 215.6 27.9333 214.534 27.35C213.467 26.75 212.625 25.9083 212.009 24.825C211.409 23.7417 211.109 22.4917 211.109 21.075C211.109 19.6583 211.417 18.4083 212.034 17.325C212.667 16.2417 213.525 15.4083 214.609 14.825C215.692 14.225 216.9 13.925 218.234 13.925C219.567 13.925 220.775 14.225 221.859 14.825C222.942 15.4083 223.792 16.2417 224.409 17.325C225.042 18.4083 225.359 19.6583 225.359 21.075C225.359 22.4917 225.034 23.7417 224.384 24.825C223.75 25.9083 222.884 26.75 221.784 27.35C220.7 27.9333 219.484 28.225 218.134 28.225ZM218.134 25.175C218.767 25.175 219.359 25.025 219.909 24.725C220.475 24.4083 220.925 23.9417 221.259 23.325C221.592 22.7083 221.759 21.9583 221.759 21.075C221.759 19.7583 221.409 18.75 220.709 18.05C220.025 17.3333 219.184 16.975 218.184 16.975C217.184 16.975 216.342 17.3333 215.659 18.05C214.992 18.75 214.659 19.7583 214.659 21.075C214.659 22.3917 214.984 23.4083 215.634 24.125C216.3 24.825 217.134 25.175 218.134 25.175ZM231.426 16.3C231.876 15.5667 232.46 14.9917 233.176 14.575C233.91 14.1583 234.743 13.95 235.676 13.95V17.625H234.751C233.651 17.625 232.818 17.8833 232.251 18.4C231.701 18.9167 231.426 19.8167 231.426 21.1V28H227.926V14.15H231.426V16.3ZM242.109 17.025V23.725C242.109 24.1917 242.217 24.5333 242.434 24.75C242.667 24.95 243.05 25.05 243.584 25.05H245.209V28H243.009C240.059 28 238.584 26.5667 238.584 23.7V17.025H236.934V14.15H238.584V10.725H242.109V14.15H245.209V17.025H242.109Z" fill="#C1C1C1"/>
<path d="M76.04 48.1C77.52 48.1 78.8133 48.3867 79.92 48.96C81.04 49.52 81.9 50.3333 82.5 51.4C83.1133 52.4533 83.42 53.6867 83.42 55.1C83.42 56.5133 83.1133 57.74 82.5 58.78C81.9 59.82 81.04 60.62 79.92 61.18C78.8133 61.7267 77.52 62 76.04 62H71.5V48.1H76.04ZM76.04 60.14C77.6667 60.14 78.9133 59.7 79.78 58.82C80.6467 57.94 81.08 56.7 81.08 55.1C81.08 53.4867 80.6467 52.2267 79.78 51.32C78.9133 50.4133 77.6667 49.96 76.04 49.96H73.78V60.14H76.04ZM95.7797 56.22C95.7797 56.6333 95.753 57.0067 95.6997 57.34H87.2797C87.3464 58.22 87.673 58.9267 88.2597 59.46C88.8464 59.9933 89.5664 60.26 90.4197 60.26C91.6464 60.26 92.513 59.7467 93.0197 58.72H95.4797C95.1464 59.7333 94.5397 60.5667 93.6597 61.22C92.793 61.86 91.713 62.18 90.4197 62.18C89.3664 62.18 88.4197 61.9467 87.5797 61.48C86.753 61 86.0997 60.3333 85.6197 59.48C85.153 58.6133 84.9197 57.6133 84.9197 56.48C84.9197 55.3467 85.1464 54.3533 85.5997 53.5C86.0664 52.6333 86.713 51.9667 87.5397 51.5C88.3797 51.0333 89.3397 50.8 90.4197 50.8C91.4597 50.8 92.3864 51.0267 93.1997 51.48C94.013 51.9333 94.6464 52.5733 95.0997 53.4C95.553 54.2133 95.7797 55.1533 95.7797 56.22ZM93.3997 55.5C93.3864 54.66 93.0864 53.9867 92.4997 53.48C91.913 52.9733 91.1864 52.72 90.3197 52.72C89.533 52.72 88.8597 52.9733 88.2997 53.48C87.7397 53.9733 87.4064 54.6467 87.2997 55.5H93.3997ZM97.2634 56.44C97.2634 55.3333 97.4901 54.3533 97.9434 53.5C98.4101 52.6467 99.0368 51.9867 99.8234 51.52C100.623 51.04 101.51 50.8 102.483 50.8C103.203 50.8 103.91 50.96 104.603 51.28C105.31 51.5867 105.87 52 106.283 52.52V47.2H108.583V62H106.283V60.34C105.91 60.8733 105.39 61.3133 104.723 61.66C104.07 62.0067 103.317 62.18 102.463 62.18C101.503 62.18 100.623 61.94 99.8234 61.46C99.0368 60.9667 98.4101 60.2867 97.9434 59.42C97.4901 58.54 97.2634 57.5467 97.2634 56.44ZM106.283 56.48C106.283 55.72 106.123 55.06 105.803 54.5C105.497 53.94 105.09 53.5133 104.583 53.22C104.077 52.9267 103.53 52.78 102.943 52.78C102.357 52.78 101.81 52.9267 101.303 53.22C100.797 53.5 100.383 53.92 100.063 54.48C99.7568 55.0267 99.6034 55.68 99.6034 56.44C99.6034 57.2 99.7568 57.8667 100.063 58.44C100.383 59.0133 100.797 59.4533 101.303 59.76C101.823 60.0533 102.37 60.2 102.943 60.2C103.53 60.2 104.077 60.0533 104.583 59.76C105.09 59.4667 105.497 59.04 105.803 58.48C106.123 57.9067 106.283 57.24 106.283 56.48ZM112.738 49.52C112.325 49.52 111.978 49.38 111.698 49.1C111.418 48.82 111.278 48.4733 111.278 48.06C111.278 47.6467 111.418 47.3 111.698 47.02C111.978 46.74 112.325 46.6 112.738 46.6C113.138 46.6 113.478 46.74 113.758 47.02C114.038 47.3 114.178 47.6467 114.178 48.06C114.178 48.4733 114.038 48.82 113.758 49.1C113.478 49.38 113.138 49.52 112.738 49.52ZM113.858 50.98V62H111.578V50.98H113.858ZM116.092 56.48C116.092 55.3467 116.318 54.3533 116.772 53.5C117.238 52.6333 117.878 51.9667 118.692 51.5C119.505 51.0333 120.438 50.8 121.492 50.8C122.825 50.8 123.925 51.12 124.792 51.76C125.672 52.3867 126.265 53.2867 126.572 54.46H124.112C123.912 53.9133 123.592 53.4867 123.152 53.18C122.712 52.8733 122.158 52.72 121.492 52.72C120.558 52.72 119.812 53.0533 119.252 53.72C118.705 54.3733 118.432 55.2933 118.432 56.48C118.432 57.6667 118.705 58.5933 119.252 59.26C119.812 59.9267 120.558 60.26 121.492 60.26C122.812 60.26 123.685 59.68 124.112 58.52H126.572C126.252 59.64 125.652 60.5333 124.772 61.2C123.892 61.8533 122.798 62.18 121.492 62.18C120.438 62.18 119.505 61.9467 118.692 61.48C117.878 61 117.238 60.3333 116.772 59.48C116.318 58.6133 116.092 57.6133 116.092 56.48ZM128.084 56.44C128.084 55.3333 128.31 54.3533 128.764 53.5C129.23 52.6467 129.857 51.9867 130.644 51.52C131.444 51.04 132.324 50.8 133.284 50.8C134.15 50.8 134.904 50.9733 135.544 51.32C136.197 51.6533 136.717 52.0733 137.104 52.58V50.98H139.404V62H137.104V60.36C136.717 60.88 136.19 61.3133 135.524 61.66C134.857 62.0067 134.097 62.18 133.244 62.18C132.297 62.18 131.43 61.94 130.644 61.46C129.857 60.9667 129.23 60.2867 128.764 59.42C128.31 58.54 128.084 57.5467 128.084 56.44ZM137.104 56.48C137.104 55.72 136.944 55.06 136.624 54.5C136.317 53.94 135.91 53.5133 135.404 53.22C134.897 52.9267 134.35 52.78 133.764 52.78C133.177 52.78 132.63 52.9267 132.124 53.22C131.617 53.5 131.204 53.92 130.884 54.48C130.577 55.0267 130.424 55.68 130.424 56.44C130.424 57.2 130.577 57.8667 130.884 58.44C131.204 59.0133 131.617 59.4533 132.124 59.76C132.644 60.0533 133.19 60.2 133.764 60.2C134.35 60.2 134.897 60.0533 135.404 59.76C135.91 59.4667 136.317 59.04 136.624 58.48C136.944 57.9067 137.104 57.24 137.104 56.48ZM145.058 52.84V58.94C145.058 59.3533 145.152 59.6533 145.338 59.84C145.538 60.0133 145.872 60.1 146.338 60.1H147.738V62H145.938C144.912 62 144.125 61.76 143.578 61.28C143.032 60.8 142.758 60.02 142.758 58.94V52.84H141.458V50.98H142.758V48.24H145.058V50.98H147.738V52.84H145.058ZM159.94 56.22C159.94 56.6333 159.913 57.0067 159.86 57.34H151.44C151.507 58.22 151.833 58.9267 152.42 59.46C153.007 59.9933 153.727 60.26 154.58 60.26C155.807 60.26 156.673 59.7467 157.18 58.72H159.64C159.307 59.7333 158.7 60.5667 157.82 61.22C156.953 61.86 155.873 62.18 154.58 62.18C153.527 62.18 152.58 61.9467 151.74 61.48C150.913 61 150.26 60.3333 149.78 59.48C149.313 58.6133 149.08 57.6133 149.08 56.48C149.08 55.3467 149.307 54.3533 149.76 53.5C150.227 52.6333 150.873 51.9667 151.7 51.5C152.54 51.0333 153.5 50.8 154.58 50.8C155.62 50.8 156.547 51.0267 157.36 51.48C158.173 51.9333 158.807 52.5733 159.26 53.4C159.713 54.2133 159.94 55.1533 159.94 56.22ZM157.56 55.5C157.547 54.66 157.247 53.9867 156.66 53.48C156.073 52.9733 155.347 52.72 154.48 52.72C153.693 52.72 153.02 52.9733 152.46 53.48C151.9 53.9733 151.567 54.6467 151.46 55.5H157.56ZM161.424 56.44C161.424 55.3333 161.65 54.3533 162.104 53.5C162.57 52.6467 163.197 51.9867 163.984 51.52C164.784 51.04 165.67 50.8 166.644 50.8C167.364 50.8 168.07 50.96 168.764 51.28C169.47 51.5867 170.03 52 170.444 52.52V47.2H172.744V62H170.444V60.34C170.07 60.8733 169.55 61.3133 168.884 61.66C168.23 62.0067 167.477 62.18 166.624 62.18C165.664 62.18 164.784 61.94 163.984 61.46C163.197 60.9667 162.57 60.2867 162.104 59.42C161.65 58.54 161.424 57.5467 161.424 56.44ZM170.444 56.48C170.444 55.72 170.284 55.06 169.964 54.5C169.657 53.94 169.25 53.5133 168.744 53.22C168.237 52.9267 167.69 52.78 167.104 52.78C166.517 52.78 165.97 52.9267 165.464 53.22C164.957 53.5 164.544 53.92 164.224 54.48C163.917 55.0267 163.764 55.68 163.764 56.44C163.764 57.2 163.917 57.8667 164.224 58.44C164.544 59.0133 164.957 59.4533 165.464 59.76C165.984 60.0533 166.53 60.2 167.104 60.2C167.69 60.2 168.237 60.0533 168.744 59.76C169.25 59.4667 169.657 59.04 169.964 58.48C170.284 57.9067 170.444 57.24 170.444 56.48ZM184.934 62.18C184.067 62.18 183.287 62.0267 182.594 61.72C181.914 61.4 181.374 60.9733 180.974 60.44C180.574 59.8933 180.36 59.2867 180.334 58.62H182.694C182.734 59.0867 182.954 59.48 183.354 59.8C183.767 60.1067 184.28 60.26 184.894 60.26C185.534 60.26 186.027 60.14 186.374 59.9C186.734 59.6467 186.914 59.3267 186.914 58.94C186.914 58.5267 186.714 58.22 186.314 58.02C185.927 57.82 185.307 57.6 184.454 57.36C183.627 57.1333 182.954 56.9133 182.434 56.7C181.914 56.4867 181.46 56.16 181.074 55.72C180.7 55.28 180.514 54.7 180.514 53.98C180.514 53.3933 180.687 52.86 181.034 52.38C181.38 51.8867 181.874 51.5 182.514 51.22C183.167 50.94 183.914 50.8 184.754 50.8C186.007 50.8 187.014 51.12 187.774 51.76C188.547 52.3867 188.96 53.2467 189.014 54.34H186.734C186.694 53.8467 186.494 53.4533 186.134 53.16C185.774 52.8667 185.287 52.72 184.674 52.72C184.074 52.72 183.614 52.8333 183.294 53.06C182.974 53.2867 182.814 53.5867 182.814 53.96C182.814 54.2533 182.92 54.5 183.134 54.7C183.347 54.9 183.607 55.06 183.914 55.18C184.22 55.2867 184.674 55.4267 185.274 55.6C186.074 55.8133 186.727 56.0333 187.234 56.26C187.754 56.4733 188.2 56.7933 188.574 57.22C188.947 57.6467 189.14 58.2133 189.154 58.92C189.154 59.5467 188.98 60.1067 188.634 60.6C188.287 61.0933 187.794 61.48 187.154 61.76C186.527 62.04 185.787 62.18 184.934 62.18ZM201.597 50.98V62H199.317V60.7C198.957 61.1533 198.484 61.5133 197.897 61.78C197.324 62.0333 196.711 62.16 196.057 62.16C195.191 62.16 194.411 61.98 193.717 61.62C193.037 61.26 192.497 60.7267 192.097 60.02C191.711 59.3133 191.517 58.46 191.517 57.46V50.98H193.777V57.12C193.777 58.1067 194.024 58.8667 194.517 59.4C195.011 59.92 195.684 60.18 196.537 60.18C197.391 60.18 198.064 59.92 198.557 59.4C199.064 58.8667 199.317 58.1067 199.317 57.12V50.98H201.597ZM206.885 52.6C207.272 52.0933 207.799 51.6667 208.465 51.32C209.132 50.9733 209.885 50.8 210.725 50.8C211.685 50.8 212.559 51.04 213.345 51.52C214.145 51.9867 214.772 52.6467 215.225 53.5C215.679 54.3533 215.905 55.3333 215.905 56.44C215.905 57.5467 215.679 58.54 215.225 59.42C214.772 60.2867 214.145 60.9667 213.345 61.46C212.559 61.94 211.685 62.18 210.725 62.18C209.885 62.18 209.139 62.0133 208.485 61.68C207.832 61.3333 207.299 60.9067 206.885 60.4V67.24H204.605V50.98H206.885V52.6ZM213.585 56.44C213.585 55.68 213.425 55.0267 213.105 54.48C212.799 53.92 212.385 53.5 211.865 53.22C211.359 52.9267 210.812 52.78 210.225 52.78C209.652 52.78 209.105 52.9267 208.585 53.22C208.079 53.5133 207.665 53.94 207.345 54.5C207.039 55.06 206.885 55.72 206.885 56.48C206.885 57.24 207.039 57.9067 207.345 58.48C207.665 59.04 208.079 59.4667 208.585 59.76C209.105 60.0533 209.652 60.2 210.225 60.2C210.812 60.2 211.359 60.0533 211.865 59.76C212.385 59.4533 212.799 59.0133 213.105 58.44C213.425 57.8667 213.585 57.2 213.585 56.44ZM220.44 52.6C220.827 52.0933 221.353 51.6667 222.02 51.32C222.687 50.9733 223.44 50.8 224.28 50.8C225.24 50.8 226.113 51.04 226.9 51.52C227.7 51.9867 228.327 52.6467 228.78 53.5C229.233 54.3533 229.46 55.3333 229.46 56.44C229.46 57.5467 229.233 58.54 228.78 59.42C228.327 60.2867 227.7 60.9667 226.9 61.46C226.113 61.94 225.24 62.18 224.28 62.18C223.44 62.18 222.693 62.0133 222.04 61.68C221.387 61.3333 220.853 60.9067 220.44 60.4V67.24H218.16V50.98H220.44V52.6ZM227.14 56.44C227.14 55.68 226.98 55.0267 226.66 54.48C226.353 53.92 225.94 53.5 225.42 53.22C224.913 52.9267 224.367 52.78 223.78 52.78C223.207 52.78 222.66 52.9267 222.14 53.22C221.633 53.5133 221.22 53.94 220.9 54.5C220.593 55.06 220.44 55.72 220.44 56.48C220.44 57.24 220.593 57.9067 220.9 58.48C221.22 59.04 221.633 59.4667 222.14 59.76C222.66 60.0533 223.207 60.2 223.78 60.2C224.367 60.2 224.913 60.0533 225.42 59.76C225.94 59.4533 226.353 59.0133 226.66 58.44C226.98 57.8667 227.14 57.2 227.14 56.44ZM236.495 62.18C235.455 62.18 234.515 61.9467 233.675 61.48C232.835 61 232.175 60.3333 231.695 59.48C231.215 58.6133 230.975 57.6133 230.975 56.48C230.975 55.36 231.222 54.3667 231.715 53.5C232.208 52.6333 232.882 51.9667 233.735 51.5C234.588 51.0333 235.542 50.8 236.595 50.8C237.648 50.8 238.602 51.0333 239.455 51.5C240.308 51.9667 240.982 52.6333 241.475 53.5C241.968 54.3667 242.215 55.36 242.215 56.48C242.215 57.6 241.962 58.5933 241.455 59.46C240.948 60.3267 240.255 61 239.375 61.48C238.508 61.9467 237.548 62.18 236.495 62.18ZM236.495 60.2C237.082 60.2 237.628 60.06 238.135 59.78C238.655 59.5 239.075 59.08 239.395 58.52C239.715 57.96 239.875 57.28 239.875 56.48C239.875 55.68 239.722 55.0067 239.415 54.46C239.108 53.9 238.702 53.48 238.195 53.2C237.688 52.92 237.142 52.78 236.555 52.78C235.968 52.78 235.422 52.92 234.915 53.2C234.422 53.48 234.028 53.9 233.735 54.46C233.442 55.0067 233.295 55.68 233.295 56.48C233.295 57.6667 233.595 58.5867 234.195 59.24C234.808 59.88 235.575 60.2 236.495 60.2ZM246.749 52.58C247.082 52.02 247.522 51.5867 248.069 51.28C248.629 50.96 249.289 50.8 250.049 50.8V53.16H249.469C248.575 53.16 247.895 53.3867 247.429 53.84C246.975 54.2933 246.749 55.08 246.749 56.2V62H244.469V50.98H246.749V52.58ZM254.805 52.84V58.94C254.805 59.3533 254.898 59.6533 255.085 59.84C255.285 60.0133 255.618 60.1 256.085 60.1H257.485V62H255.685C254.658 62 253.871 61.76 253.325 61.28C252.778 60.8 252.505 60.02 252.505 58.94V52.84H251.205V50.98H252.505V48.24H254.805V50.98H257.485V52.84H254.805Z" fill="#898989"/>
<defs>
<clipPath id="clip0_27_620">
<rect width="60" height="60" fill="white" transform="translate(0 5)"/>
</clipPath>
</defs>
</svg>
