<svg width="337" height="70" viewBox="0 0 337 70" fill="none" xmlns="http://www.w3.org/2000/svg">
<path d="M49.3547 8.51562C48.0744 8.51562 46.8741 8.86121 45.839 9.46156V6.75781C45.839 5.78703 45.052 5 44.0812 5H15.9562C14.9853 5 14.1983 5.78703 14.1983 6.75781V9.48301C13.155 8.8693 11.941 8.51562 10.6455 8.51562C6.76848 8.51562 3.61426 11.6698 3.61426 15.5469C3.61426 18.5041 4.49059 21.3615 6.14844 23.8102C8.97078 27.9789 12.4511 29.0607 15.331 30.2127C16.9916 34.348 20.3496 37.6252 24.5384 39.1769L23.2422 47.4219H22.9875C20.0797 47.4219 17.714 49.7875 17.714 52.6953V61.4844H15.9562C14.9854 61.4844 14.1984 62.2714 14.1984 63.2422C14.1984 64.213 14.9854 65 15.9562 65H44.0812C45.052 65 45.839 64.213 45.839 63.2422C45.839 62.2714 45.052 61.4844 44.0812 61.4844H42.3234V52.6953C42.3234 49.7875 39.9577 47.4219 37.05 47.4219H36.7952L35.4991 39.177C39.6941 37.623 43.0558 34.3386 44.7139 30.1948C47.4344 29.1066 51.0005 28.0217 53.8518 23.8102C55.5097 21.3615 56.386 18.504 56.386 15.5469C56.3859 11.6698 53.2317 8.51562 49.3547 8.51562ZM14.1853 25.968C9.89926 24.2536 7.12988 20.1631 7.12988 15.5469C7.12988 13.6084 8.70699 12.0312 10.6455 12.0312C12.584 12.0312 14.1611 13.6084 14.1611 15.5469C14.1611 15.6705 14.1741 15.791 14.1984 15.9073V24.3359C14.1984 24.9009 14.2288 25.4588 14.2869 26.0087L14.1853 25.968ZM38.8078 61.4844H21.2296V57.9688H38.8078V61.4844ZM37.05 50.9375C38.0192 50.9375 38.8078 51.7261 38.8078 52.6953V54.4531H21.2296V52.6953C21.2296 51.7261 22.0182 50.9375 22.9875 50.9375C23.9411 50.9375 34.8134 50.9375 37.05 50.9375ZM26.801 47.4219L27.9642 40.023C28.6368 40.1107 29.3225 40.1562 30.0187 40.1562C30.7149 40.1562 31.4006 40.1105 32.0732 40.023L33.2364 47.4219H26.801ZM42.3234 24.3359C42.3234 31.1207 36.8035 36.6406 30.0187 36.6406C23.2339 36.6406 17.714 31.1207 17.714 24.3359V15.5469H42.3234V24.3359ZM42.3234 12.0312H17.714V8.51562H42.3234V12.0312ZM45.8148 25.968L45.7523 25.993C45.8093 25.4483 45.8389 24.8955 45.8389 24.3359V15.5469C45.839 13.6084 47.4161 12.0312 49.3547 12.0312C51.2932 12.0312 52.8703 13.6084 52.8703 15.5469C52.8703 20.1631 50.1009 24.2537 45.8148 25.968Z" fill="#C1C1C1"/>
<path d="M86.2 10.55V28H82.7V20.575H75.225V28H71.725V10.55H75.225V17.725H82.7V10.55H86.2ZM91.4199 12.5C90.8033 12.5 90.2866 12.3083 89.8699 11.925C89.4699 11.525 89.2699 11.0333 89.2699 10.45C89.2699 9.86667 89.4699 9.38333 89.8699 9C90.2866 8.6 90.8033 8.4 91.4199 8.4C92.0366 8.4 92.5449 8.6 92.9449 9C93.3616 9.38333 93.5699 9.86667 93.5699 10.45C93.5699 11.0333 93.3616 11.525 92.9449 11.925C92.5449 12.3083 92.0366 12.5 91.4199 12.5ZM93.1449 14.15V28H89.6449V14.15H93.1449ZM102.028 13.925C103.061 13.925 103.97 14.1333 104.753 14.55C105.536 14.95 106.153 15.475 106.603 16.125V14.15H110.128V28.1C110.128 29.3833 109.87 30.525 109.353 31.525C108.836 32.5417 108.061 33.3417 107.028 33.925C105.995 34.525 104.745 34.825 103.278 34.825C101.311 34.825 99.6946 34.3667 98.4279 33.45C97.1779 32.5333 96.4696 31.2833 96.3029 29.7H99.7779C99.9613 30.3333 100.353 30.8333 100.953 31.2C101.57 31.5833 102.311 31.775 103.178 31.775C104.195 31.775 105.02 31.4667 105.653 30.85C106.286 30.25 106.603 29.3333 106.603 28.1V25.95C106.153 26.6 105.528 27.1417 104.728 27.575C103.945 28.0083 103.045 28.225 102.028 28.225C100.861 28.225 99.7946 27.925 98.8279 27.325C97.8613 26.725 97.0946 25.8833 96.5279 24.8C95.9779 23.7 95.7029 22.4417 95.7029 21.025C95.7029 19.625 95.9779 18.3833 96.5279 17.3C97.0946 16.2167 97.8529 15.3833 98.8029 14.8C99.7696 14.2167 100.845 13.925 102.028 13.925ZM106.603 21.075C106.603 20.225 106.436 19.5 106.103 18.9C105.77 18.2833 105.32 17.8167 104.753 17.5C104.186 17.1667 103.578 17 102.928 17C102.278 17 101.678 17.1583 101.128 17.475C100.578 17.7917 100.128 18.2583 99.7779 18.875C99.4446 19.475 99.2779 20.1917 99.2779 21.025C99.2779 21.8583 99.4446 22.5917 99.7779 23.225C100.128 23.8417 100.578 24.3167 101.128 24.65C101.695 24.9833 102.295 25.15 102.928 25.15C103.578 25.15 104.186 24.9917 104.753 24.675C105.32 24.3417 105.77 23.875 106.103 23.275C106.436 22.6583 106.603 21.925 106.603 21.075ZM121.346 13.95C122.396 13.95 123.33 14.1833 124.146 14.65C124.963 15.1 125.596 15.775 126.046 16.675C126.513 17.5583 126.746 18.625 126.746 19.875V28H123.246V20.35C123.246 19.25 122.971 18.4083 122.421 17.825C121.871 17.225 121.121 16.925 120.171 16.925C119.205 16.925 118.438 17.225 117.871 17.825C117.321 18.4083 117.046 19.25 117.046 20.35V28H113.546V9.5H117.046V15.875C117.496 15.275 118.096 14.8083 118.846 14.475C119.596 14.125 120.43 13.95 121.346 13.95ZM149.032 31.075L146.382 27.9C145.648 28.0833 144.898 28.175 144.132 28.175C142.498 28.175 140.998 27.7917 139.632 27.025C138.265 26.2583 137.182 25.2 136.382 23.85C135.582 22.4833 135.182 20.9417 135.182 19.225C135.182 17.525 135.582 16 136.382 14.65C137.182 13.2833 138.265 12.2167 139.632 11.45C140.998 10.6833 142.498 10.3 144.132 10.3C145.782 10.3 147.282 10.6833 148.632 11.45C149.998 12.2167 151.073 13.2833 151.857 14.65C152.657 16 153.057 17.525 153.057 19.225C153.057 20.775 152.723 22.1917 152.057 23.475C151.407 24.7417 150.515 25.775 149.382 26.575L153.382 31.075H149.032ZM138.782 19.225C138.782 20.3917 139.007 21.4167 139.457 22.3C139.907 23.1833 140.532 23.8667 141.332 24.35C142.148 24.8167 143.082 25.05 144.132 25.05C145.182 25.05 146.107 24.8167 146.907 24.35C147.707 23.8667 148.332 23.1833 148.782 22.3C149.232 21.4167 149.457 20.3917 149.457 19.225C149.457 18.0583 149.232 17.0417 148.782 16.175C148.332 15.2917 147.707 14.6167 146.907 14.15C146.107 13.6833 145.182 13.45 144.132 13.45C143.082 13.45 142.148 13.6833 141.332 14.15C140.532 14.6167 139.907 15.2917 139.457 16.175C139.007 17.0417 138.782 18.0583 138.782 19.225ZM168.784 14.15V28H165.259V26.25C164.809 26.85 164.218 27.325 163.484 27.675C162.768 28.0083 161.984 28.175 161.134 28.175C160.051 28.175 159.093 27.95 158.259 27.5C157.426 27.0333 156.768 26.3583 156.284 25.475C155.818 24.575 155.584 23.5083 155.584 22.275V14.15H159.084V21.775C159.084 22.875 159.359 23.725 159.909 24.325C160.459 24.9083 161.209 25.2 162.159 25.2C163.126 25.2 163.884 24.9083 164.434 24.325C164.984 23.725 165.259 22.875 165.259 21.775V14.15H168.784ZM171.338 21.025C171.338 19.625 171.613 18.3833 172.163 17.3C172.729 16.2167 173.488 15.3833 174.438 14.8C175.404 14.2167 176.479 13.925 177.663 13.925C178.696 13.925 179.596 14.1333 180.363 14.55C181.146 14.9667 181.771 15.4917 182.238 16.125V14.15H185.763V28H182.238V25.975C181.788 26.625 181.163 27.1667 180.363 27.6C179.579 28.0167 178.671 28.225 177.638 28.225C176.471 28.225 175.404 27.925 174.438 27.325C173.488 26.725 172.729 25.8833 172.163 24.8C171.613 23.7 171.338 22.4417 171.338 21.025ZM182.238 21.075C182.238 20.225 182.071 19.5 181.738 18.9C181.404 18.2833 180.954 17.8167 180.388 17.5C179.821 17.1667 179.213 17 178.563 17C177.913 17 177.313 17.1583 176.763 17.475C176.213 17.7917 175.763 18.2583 175.413 18.875C175.079 19.475 174.913 20.1917 174.913 21.025C174.913 21.8583 175.079 22.5917 175.413 23.225C175.763 23.8417 176.213 24.3167 176.763 24.65C177.329 24.9833 177.929 25.15 178.563 25.15C179.213 25.15 179.821 24.9917 180.388 24.675C180.954 24.3417 181.404 23.875 181.738 23.275C182.071 22.6583 182.238 21.925 182.238 21.075ZM192.681 9.5V28H189.181V9.5H192.681ZM197.914 12.5C197.297 12.5 196.781 12.3083 196.364 11.925C195.964 11.525 195.764 11.0333 195.764 10.45C195.764 9.86667 195.964 9.38333 196.364 9C196.781 8.6 197.297 8.4 197.914 8.4C198.531 8.4 199.039 8.6 199.439 9C199.856 9.38333 200.064 9.86667 200.064 10.45C200.064 11.0333 199.856 11.525 199.439 11.925C199.039 12.3083 198.531 12.5 197.914 12.5ZM199.639 14.15V28H196.139V14.15H199.639ZM207.172 17.025V23.725C207.172 24.1917 207.28 24.5333 207.497 24.75C207.73 24.95 208.114 25.05 208.647 25.05H210.272V28H208.072C205.122 28 203.647 26.5667 203.647 23.7V17.025H201.997V14.15H203.647V10.725H207.172V14.15H210.272V17.025H207.172ZM226.039 14.15L217.464 34.55H213.739L216.739 27.65L211.189 14.15H215.114L218.689 23.825L222.314 14.15H226.039Z" fill="#C1C1C1"/>
<path d="M70.74 56.48C70.74 55.3467 70.9667 54.3533 71.42 53.5C71.8867 52.6333 72.5267 51.9667 73.34 51.5C74.1533 51.0333 75.0867 50.8 76.14 50.8C77.4733 50.8 78.5733 51.12 79.44 51.76C80.32 52.3867 80.9133 53.2867 81.22 54.46H78.76C78.56 53.9133 78.24 53.4867 77.8 53.18C77.36 52.8733 76.8067 52.72 76.14 52.72C75.2067 52.72 74.46 53.0533 73.9 53.72C73.3533 54.3733 73.08 55.2933 73.08 56.48C73.08 57.6667 73.3533 58.5933 73.9 59.26C74.46 59.9267 75.2067 60.26 76.14 60.26C77.46 60.26 78.3333 59.68 78.76 58.52H81.22C80.9 59.64 80.3 60.5333 79.42 61.2C78.54 61.8533 77.4467 62.18 76.14 62.18C75.0867 62.18 74.1533 61.9467 73.34 61.48C72.5267 61 71.8867 60.3333 71.42 59.48C70.9667 58.6133 70.74 57.6133 70.74 56.48ZM85.7722 52.58C86.1055 52.02 86.5455 51.5867 87.0922 51.28C87.6522 50.96 88.3122 50.8 89.0722 50.8V53.16H88.4922C87.5989 53.16 86.9189 53.3867 86.4522 53.84C85.9989 54.2933 85.7722 55.08 85.7722 56.2V62H83.4922V50.98H85.7722V52.58ZM90.408 56.44C90.408 55.3333 90.6346 54.3533 91.088 53.5C91.5546 52.6467 92.1813 51.9867 92.968 51.52C93.768 51.04 94.648 50.8 95.608 50.8C96.4746 50.8 97.228 50.9733 97.868 51.32C98.5213 51.6533 99.0413 52.0733 99.428 52.58V50.98H101.728V62H99.428V60.36C99.0413 60.88 98.5146 61.3133 97.848 61.66C97.1813 62.0067 96.4213 62.18 95.568 62.18C94.6213 62.18 93.7546 61.94 92.968 61.46C92.1813 60.9667 91.5546 60.2867 91.088 59.42C90.6346 58.54 90.408 57.5467 90.408 56.44ZM99.428 56.48C99.428 55.72 99.268 55.06 98.948 54.5C98.6413 53.94 98.2346 53.5133 97.728 53.22C97.2213 52.9267 96.6746 52.78 96.088 52.78C95.5013 52.78 94.9546 52.9267 94.448 53.22C93.9413 53.5 93.528 53.92 93.208 54.48C92.9013 55.0267 92.748 55.68 92.748 56.44C92.748 57.2 92.9013 57.8667 93.208 58.44C93.528 59.0133 93.9413 59.4533 94.448 59.76C94.968 60.0533 95.5146 60.2 96.088 60.2C96.6746 60.2 97.2213 60.0533 97.728 59.76C98.2346 59.4667 98.6413 59.04 98.948 58.48C99.268 57.9067 99.428 57.24 99.428 56.48ZM109.343 52.84H107.303V62H105.003V52.84H103.703V50.98H105.003V50.2C105.003 48.9333 105.336 48.0133 106.003 47.44C106.683 46.8533 107.743 46.56 109.183 46.56V48.46C108.489 48.46 108.003 48.5933 107.723 48.86C107.443 49.1133 107.303 49.56 107.303 50.2V50.98H109.343V52.84ZM114.023 52.84V58.94C114.023 59.3533 114.117 59.6533 114.303 59.84C114.503 60.0133 114.837 60.1 115.303 60.1H116.703V62H114.903C113.877 62 113.09 61.76 112.543 61.28C111.997 60.8 111.723 60.02 111.723 58.94V52.84H110.423V50.98H111.723V48.24H114.023V50.98H116.703V52.84H114.023ZM128.905 56.22C128.905 56.6333 128.878 57.0067 128.825 57.34H120.405C120.471 58.22 120.798 58.9267 121.385 59.46C121.971 59.9933 122.691 60.26 123.545 60.26C124.771 60.26 125.638 59.7467 126.145 58.72H128.605C128.271 59.7333 127.665 60.5667 126.785 61.22C125.918 61.86 124.838 62.18 123.545 62.18C122.491 62.18 121.545 61.9467 120.705 61.48C119.878 61 119.225 60.3333 118.745 59.48C118.278 58.6133 118.045 57.6133 118.045 56.48C118.045 55.3467 118.271 54.3533 118.725 53.5C119.191 52.6333 119.838 51.9667 120.665 51.5C121.505 51.0333 122.465 50.8 123.545 50.8C124.585 50.8 125.511 51.0267 126.325 51.48C127.138 51.9333 127.771 52.5733 128.225 53.4C128.678 54.2133 128.905 55.1533 128.905 56.22ZM126.525 55.5C126.511 54.66 126.211 53.9867 125.625 53.48C125.038 52.9733 124.311 52.72 123.445 52.72C122.658 52.72 121.985 52.9733 121.425 53.48C120.865 53.9733 120.531 54.6467 120.425 55.5H126.525ZM130.388 56.44C130.388 55.3333 130.615 54.3533 131.068 53.5C131.535 52.6467 132.162 51.9867 132.948 51.52C133.748 51.04 134.635 50.8 135.608 50.8C136.328 50.8 137.035 50.96 137.728 51.28C138.435 51.5867 138.995 52 139.408 52.52V47.2H141.708V62H139.408V60.34C139.035 60.8733 138.515 61.3133 137.848 61.66C137.195 62.0067 136.442 62.18 135.588 62.18C134.628 62.18 133.748 61.94 132.948 61.46C132.162 60.9667 131.535 60.2867 131.068 59.42C130.615 58.54 130.388 57.5467 130.388 56.44ZM139.408 56.48C139.408 55.72 139.248 55.06 138.928 54.5C138.622 53.94 138.215 53.5133 137.708 53.22C137.202 52.9267 136.655 52.78 136.068 52.78C135.482 52.78 134.935 52.9267 134.428 53.22C133.922 53.5 133.508 53.92 133.188 54.48C132.882 55.0267 132.728 55.68 132.728 56.44C132.728 57.2 132.882 57.8667 133.188 58.44C133.508 59.0133 133.922 59.4533 134.428 59.76C134.948 60.0533 135.495 60.2 136.068 60.2C136.655 60.2 137.202 60.0533 137.708 59.76C138.215 59.4667 138.622 59.04 138.928 58.48C139.248 57.9067 139.408 57.24 139.408 56.48ZM154.518 52.84H152.478V62H150.178V52.84H148.878V50.98H150.178V50.2C150.178 48.9333 150.512 48.0133 151.178 47.44C151.858 46.8533 152.918 46.56 154.358 46.56V48.46C153.665 48.46 153.178 48.5933 152.898 48.86C152.618 49.1133 152.478 49.56 152.478 50.2V50.98H154.518V52.84ZM158.819 52.58C159.152 52.02 159.592 51.5867 160.139 51.28C160.699 50.96 161.359 50.8 162.119 50.8V53.16H161.539C160.646 53.16 159.966 53.3867 159.499 53.84C159.046 54.2933 158.819 55.08 158.819 56.2V62H156.539V50.98H158.819V52.58ZM168.995 62.18C167.955 62.18 167.015 61.9467 166.175 61.48C165.335 61 164.675 60.3333 164.195 59.48C163.715 58.6133 163.475 57.6133 163.475 56.48C163.475 55.36 163.722 54.3667 164.215 53.5C164.708 52.6333 165.382 51.9667 166.235 51.5C167.088 51.0333 168.042 50.8 169.095 50.8C170.148 50.8 171.102 51.0333 171.955 51.5C172.808 51.9667 173.482 52.6333 173.975 53.5C174.468 54.3667 174.715 55.36 174.715 56.48C174.715 57.6 174.462 58.5933 173.955 59.46C173.448 60.3267 172.755 61 171.875 61.48C171.008 61.9467 170.048 62.18 168.995 62.18ZM168.995 60.2C169.582 60.2 170.128 60.06 170.635 59.78C171.155 59.5 171.575 59.08 171.895 58.52C172.215 57.96 172.375 57.28 172.375 56.48C172.375 55.68 172.222 55.0067 171.915 54.46C171.608 53.9 171.202 53.48 170.695 53.2C170.188 52.92 169.642 52.78 169.055 52.78C168.468 52.78 167.922 52.92 167.415 53.2C166.922 53.48 166.528 53.9 166.235 54.46C165.942 55.0067 165.795 55.68 165.795 56.48C165.795 57.6667 166.095 58.5867 166.695 59.24C167.308 59.88 168.075 60.2 168.995 60.2ZM190.309 50.8C191.175 50.8 191.949 50.98 192.629 51.34C193.322 51.7 193.862 52.2333 194.249 52.94C194.649 53.6467 194.849 54.5 194.849 55.5V62H192.589V55.84C192.589 54.8533 192.342 54.1 191.849 53.58C191.355 53.0467 190.682 52.78 189.829 52.78C188.975 52.78 188.295 53.0467 187.789 53.58C187.295 54.1 187.049 54.8533 187.049 55.84V62H184.789V55.84C184.789 54.8533 184.542 54.1 184.049 53.58C183.555 53.0467 182.882 52.78 182.029 52.78C181.175 52.78 180.495 53.0467 179.989 53.58C179.495 54.1 179.249 54.8533 179.249 55.84V62H176.969V50.98H179.249V52.24C179.622 51.7867 180.095 51.4333 180.669 51.18C181.242 50.9267 181.855 50.8 182.509 50.8C183.389 50.8 184.175 50.9867 184.869 51.36C185.562 51.7333 186.095 52.2733 186.469 52.98C186.802 52.3133 187.322 51.7867 188.029 51.4C188.735 51 189.495 50.8 190.309 50.8ZM205.605 52.84V58.94C205.605 59.3533 205.699 59.6533 205.885 59.84C206.085 60.0133 206.419 60.1 206.885 60.1H208.285V62H206.485C205.459 62 204.672 61.76 204.125 61.28C203.579 60.8 203.305 60.02 203.305 58.94V52.84H202.005V50.98H203.305V48.24H205.605V50.98H208.285V52.84H205.605ZM215.167 62.18C214.127 62.18 213.187 61.9467 212.347 61.48C211.507 61 210.847 60.3333 210.367 59.48C209.887 58.6133 209.647 57.6133 209.647 56.48C209.647 55.36 209.893 54.3667 210.387 53.5C210.88 52.6333 211.553 51.9667 212.407 51.5C213.26 51.0333 214.213 50.8 215.267 50.8C216.32 50.8 217.273 51.0333 218.127 51.5C218.98 51.9667 219.653 52.6333 220.147 53.5C220.64 54.3667 220.887 55.36 220.887 56.48C220.887 57.6 220.633 58.5933 220.127 59.46C219.62 60.3267 218.927 61 218.047 61.48C217.18 61.9467 216.22 62.18 215.167 62.18ZM215.167 60.2C215.753 60.2 216.3 60.06 216.807 59.78C217.327 59.5 217.747 59.08 218.067 58.52C218.387 57.96 218.547 57.28 218.547 56.48C218.547 55.68 218.393 55.0067 218.087 54.46C217.78 53.9 217.373 53.48 216.867 53.2C216.36 52.92 215.813 52.78 215.227 52.78C214.64 52.78 214.093 52.92 213.587 53.2C213.093 53.48 212.7 53.9 212.407 54.46C212.113 55.0067 211.967 55.68 211.967 56.48C211.967 57.6667 212.267 58.5867 212.867 59.24C213.48 59.88 214.247 60.2 215.167 60.2ZM225.421 52.6C225.807 52.0933 226.334 51.6667 227.001 51.32C227.667 50.9733 228.421 50.8 229.261 50.8C230.221 50.8 231.094 51.04 231.881 51.52C232.681 51.9867 233.307 52.6467 233.761 53.5C234.214 54.3533 234.441 55.3333 234.441 56.44C234.441 57.5467 234.214 58.54 233.761 59.42C233.307 60.2867 232.681 60.9667 231.881 61.46C231.094 61.94 230.221 62.18 229.261 62.18C228.421 62.18 227.674 62.0133 227.021 61.68C226.367 61.3333 225.834 60.9067 225.421 60.4V67.24H223.141V50.98H225.421V52.6ZM232.121 56.44C232.121 55.68 231.961 55.0267 231.641 54.48C231.334 53.92 230.921 53.5 230.401 53.22C229.894 52.9267 229.347 52.78 228.761 52.78C228.187 52.78 227.641 52.9267 227.121 53.22C226.614 53.5133 226.201 53.94 225.881 54.5C225.574 55.06 225.421 55.72 225.421 56.48C225.421 57.24 225.574 57.9067 225.881 58.48C226.201 59.04 226.614 59.4667 227.121 59.76C227.641 60.0533 228.187 60.2 228.761 60.2C229.347 60.2 229.894 60.0533 230.401 59.76C230.921 59.4533 231.334 59.0133 231.641 58.44C231.961 57.8667 232.121 57.2 232.121 56.44ZM255.231 50.8C256.097 50.8 256.871 50.98 257.551 51.34C258.244 51.7 258.784 52.2333 259.171 52.94C259.571 53.6467 259.771 54.5 259.771 55.5V62H257.511V55.84C257.511 54.8533 257.264 54.1 256.771 53.58C256.277 53.0467 255.604 52.78 254.751 52.78C253.897 52.78 253.217 53.0467 252.711 53.58C252.217 54.1 251.971 54.8533 251.971 55.84V62H249.711V55.84C249.711 54.8533 249.464 54.1 248.971 53.58C248.477 53.0467 247.804 52.78 246.951 52.78C246.097 52.78 245.417 53.0467 244.911 53.58C244.417 54.1 244.171 54.8533 244.171 55.84V62H241.891V50.98H244.171V52.24C244.544 51.7867 245.017 51.4333 245.591 51.18C246.164 50.9267 246.777 50.8 247.431 50.8C248.311 50.8 249.097 50.9867 249.791 51.36C250.484 51.7333 251.017 52.2733 251.391 52.98C251.724 52.3133 252.244 51.7867 252.951 51.4C253.657 51 254.417 50.8 255.231 50.8ZM261.912 56.44C261.912 55.3333 262.139 54.3533 262.592 53.5C263.059 52.6467 263.685 51.9867 264.472 51.52C265.272 51.04 266.152 50.8 267.112 50.8C267.979 50.8 268.732 50.9733 269.372 51.32C270.025 51.6533 270.545 52.0733 270.932 52.58V50.98H273.232V62H270.932V60.36C270.545 60.88 270.019 61.3133 269.352 61.66C268.685 62.0067 267.925 62.18 267.072 62.18C266.125 62.18 265.259 61.94 264.472 61.46C263.685 60.9667 263.059 60.2867 262.592 59.42C262.139 58.54 261.912 57.5467 261.912 56.44ZM270.932 56.48C270.932 55.72 270.772 55.06 270.452 54.5C270.145 53.94 269.739 53.5133 269.232 53.22C268.725 52.9267 268.179 52.78 267.592 52.78C267.005 52.78 266.459 52.9267 265.952 53.22C265.445 53.5 265.032 53.92 264.712 54.48C264.405 55.0267 264.252 55.68 264.252 56.44C264.252 57.2 264.405 57.8667 264.712 58.44C265.032 59.0133 265.445 59.4533 265.952 59.76C266.472 60.0533 267.019 60.2 267.592 60.2C268.179 60.2 268.725 60.0533 269.232 59.76C269.739 59.4667 270.145 59.04 270.452 58.48C270.772 57.9067 270.932 57.24 270.932 56.48ZM278.887 52.84V58.94C278.887 59.3533 278.98 59.6533 279.167 59.84C279.367 60.0133 279.7 60.1 280.167 60.1H281.567V62H279.767C278.74 62 277.953 61.76 277.407 61.28C276.86 60.8 276.587 60.02 276.587 58.94V52.84H275.287V50.98H276.587V48.24H278.887V50.98H281.567V52.84H278.887ZM293.768 56.22C293.768 56.6333 293.741 57.0067 293.688 57.34H285.268C285.335 58.22 285.661 58.9267 286.248 59.46C286.835 59.9933 287.555 60.26 288.408 60.26C289.635 60.26 290.501 59.7467 291.008 58.72H293.468C293.135 59.7333 292.528 60.5667 291.648 61.22C290.781 61.86 289.701 62.18 288.408 62.18C287.355 62.18 286.408 61.9467 285.568 61.48C284.741 61 284.088 60.3333 283.608 59.48C283.141 58.6133 282.908 57.6133 282.908 56.48C282.908 55.3467 283.135 54.3533 283.588 53.5C284.055 52.6333 284.701 51.9667 285.528 51.5C286.368 51.0333 287.328 50.8 288.408 50.8C289.448 50.8 290.375 51.0267 291.188 51.48C292.001 51.9333 292.635 52.5733 293.088 53.4C293.541 54.2133 293.768 55.1533 293.768 56.22ZM291.388 55.5C291.375 54.66 291.075 53.9867 290.488 53.48C289.901 52.9733 289.175 52.72 288.308 52.72C287.521 52.72 286.848 52.9733 286.288 53.48C285.728 53.9733 285.395 54.6467 285.288 55.5H291.388ZM298.292 52.58C298.625 52.02 299.065 51.5867 299.612 51.28C300.172 50.96 300.832 50.8 301.592 50.8V53.16H301.012C300.118 53.16 299.438 53.3867 298.972 53.84C298.518 54.2933 298.292 55.08 298.292 56.2V62H296.012V50.98H298.292V52.58ZM304.848 49.52C304.434 49.52 304.088 49.38 303.808 49.1C303.528 48.82 303.388 48.4733 303.388 48.06C303.388 47.6467 303.528 47.3 303.808 47.02C304.088 46.74 304.434 46.6 304.848 46.6C305.248 46.6 305.588 46.74 305.868 47.02C306.148 47.3 306.288 47.6467 306.288 48.06C306.288 48.4733 306.148 48.82 305.868 49.1C305.588 49.38 305.248 49.52 304.848 49.52ZM305.968 50.98V62H303.688V50.98H305.968ZM308.201 56.44C308.201 55.3333 308.428 54.3533 308.881 53.5C309.348 52.6467 309.974 51.9867 310.761 51.52C311.561 51.04 312.441 50.8 313.401 50.8C314.268 50.8 315.021 50.9733 315.661 51.32C316.314 51.6533 316.834 52.0733 317.221 52.58V50.98H319.521V62H317.221V60.36C316.834 60.88 316.308 61.3133 315.641 61.66C314.974 62.0067 314.214 62.18 313.361 62.18C312.414 62.18 311.548 61.94 310.761 61.46C309.974 60.9667 309.348 60.2867 308.881 59.42C308.428 58.54 308.201 57.5467 308.201 56.44ZM317.221 56.48C317.221 55.72 317.061 55.06 316.741 54.5C316.434 53.94 316.028 53.5133 315.521 53.22C315.014 52.9267 314.468 52.78 313.881 52.78C313.294 52.78 312.748 52.9267 312.241 53.22C311.734 53.5 311.321 53.92 311.001 54.48C310.694 55.0267 310.541 55.68 310.541 56.44C310.541 57.2 310.694 57.8667 311.001 58.44C311.321 59.0133 311.734 59.4533 312.241 59.76C312.761 60.0533 313.308 60.2 313.881 60.2C314.468 60.2 315.014 60.0533 315.521 59.76C316.028 59.4667 316.434 59.04 316.741 58.48C317.061 57.9067 317.221 57.24 317.221 56.48ZM324.796 47.2V62H322.516V47.2H324.796ZM331.789 62.18C330.922 62.18 330.142 62.0267 329.449 61.72C328.769 61.4 328.229 60.9733 327.829 60.44C327.429 59.8933 327.216 59.2867 327.189 58.62H329.549C329.589 59.0867 329.809 59.48 330.209 59.8C330.622 60.1067 331.136 60.26 331.749 60.26C332.389 60.26 332.882 60.14 333.229 59.9C333.589 59.6467 333.769 59.3267 333.769 58.94C333.769 58.5267 333.569 58.22 333.169 58.02C332.782 57.82 332.162 57.6 331.309 57.36C330.482 57.1333 329.809 56.9133 329.289 56.7C328.769 56.4867 328.316 56.16 327.929 55.72C327.556 55.28 327.369 54.7 327.369 53.98C327.369 53.3933 327.542 52.86 327.889 52.38C328.236 51.8867 328.729 51.5 329.369 51.22C330.022 50.94 330.769 50.8 331.609 50.8C332.862 50.8 333.869 51.12 334.629 51.76C335.402 52.3867 335.816 53.2467 335.869 54.34H333.589C333.549 53.8467 333.349 53.4533 332.989 53.16C332.629 52.8667 332.142 52.72 331.529 52.72C330.929 52.72 330.469 52.8333 330.149 53.06C329.829 53.2867 329.669 53.5867 329.669 53.96C329.669 54.2533 329.776 54.5 329.989 54.7C330.202 54.9 330.462 55.06 330.769 55.18C331.076 55.2867 331.529 55.4267 332.129 55.6C332.929 55.8133 333.582 56.0333 334.089 56.26C334.609 56.4733 335.056 56.7933 335.429 57.22C335.802 57.6467 335.996 58.2133 336.009 58.92C336.009 59.5467 335.836 60.1067 335.489 60.6C335.142 61.0933 334.649 61.48 334.009 61.76C333.382 62.04 332.642 62.18 331.789 62.18Z" fill="#898989"/>
</svg>
